<svg xmlns="http://www.w3.org/2000/svg" xmlns:xlink="http://www.w3.org/1999/xlink" xmlns:serif="http://www.serif.com/" version="1.1" xml:space="preserve" style="fill-rule:evenodd;clip-rule:evenodd;stroke-linejoin:round;stroke-miterlimit:2;" viewBox="200 159.79 2080 400.41">
    <g id="Horizontal-Lock-Up" serif:id="Horizontal Lock-Up">
    </g>
    <g id="London">
        <g transform="matrix(1,0,0,1,600,239.795)">
            <path d="M0,240L0,320L-400,320L-400,-80L-320,-80L-320,240L0,240Z" style="fill:rgb(82,63,118);fill-rule:nonzero;"/>
        </g>
        <g transform="matrix(1,0,0,1,600,559.794)">
            <path d="M0,-400L0,0L-80,0L-80,-160L-320,-160L-320,0L-400,0L-400,-400L-320,-400L-320,-240L-80,-240L-80,-400L0,-400Z" style="fill:rgb(164,117,24);fill-rule:nonzero;"/>
        </g>
        <g transform="matrix(1,0,0,1,600,559.794)">
            <path d="M0,-400L0,-320L-160,-320L-160,0L-240,0L-240,-320L-400,-320L-400,-400L0,-400Z" style="fill:rgb(113,95,165);fill-rule:nonzero;"/>
        </g>
        <g transform="matrix(-1,0,0,1,1120,-320.402)">
            <rect x="520" y="480.201" width="80" height="80" style="fill:rgb(106,74,114);"/>
        </g>
        <g transform="matrix(-1,0,0,1,800,-0.41)">
            <rect x="360" y="320.205" width="80" height="80" style="fill:rgb(106,74,114);"/>
        </g>
        <g transform="matrix(-1,0,0,1,480,-320.402)">
            <rect x="200" y="480.201" width="80" height="80" style="fill:rgb(61,42,91);"/>
        </g>
        <g transform="matrix(-1,0,0,1,480,79.594)">
            <rect x="200" y="160.205" width="80" height="319.996" style="fill:rgb(80,42,89);"/>
        </g>
        <g transform="matrix(-1,0,0,1,1120,319.59)">
            <rect x="520" y="160.205" width="80" height="80" style="fill:rgb(80,42,89);"/>
        </g>
        <g transform="matrix(-1,0,0,1,800,319.576)">
            <rect x="360" y="160.215" width="80" height="79.994" style="fill:rgb(61,42,91);"/>
        </g>
        <g transform="matrix(1,0,0,1,1460,473.794)">
            <path d="M0,-240L0,0L-40,0L-40,-22.84L-160,-165.85L-160,0L-200,0L-200,-240L-170,-240L-40,-85.07L-40,-240L0,-240Z" style="fill:rgb(45,45,45);fill-rule:nonzero;"/>
        </g>
        <g transform="matrix(1,0,0,1,2280,473.794)">
            <path d="M0,-240L0,0L-40,0L-40,-22.84L-160,-165.85L-160,0L-200,0L-200,-240L-170,-240L-40,-85.07L-40,-240L0,-240Z" style="fill:rgb(45,45,45);fill-rule:nonzero;"/>
        </g>
        <g transform="matrix(1,0,0,1,1034.1,285.795)">
            <path d="M0,123L50.9,23.1L101.8,123L0,123ZM50.9,-65L-78.01,188L-33.12,188L-15.8,154L117.6,154L134.92,188L179.81,188L50.9,-65Z" style="fill:rgb(45,45,45);fill-rule:nonzero;"/>
        </g>
        <g transform="matrix(1,0,0,1,920,273.795)">
            <path d="M0,160L0,200L-200,200L-200,-40L-160,-40L-160,160L0,160Z" style="fill:rgb(45,45,45);fill-rule:nonzero;"/>
        </g>
        <g transform="matrix(1,0,0,1,1905.01,273.785)">
            <path d="M0,160.02C-44.189,160.02 -80,124.169 -80,80.01C-80,35.83 -44.189,0.02 0,0.02C44.17,0.02 80,35.83 80,80.01C80,124.169 44.17,160.02 0,160.02M0,-39.99C-66.26,-39.99 -120.01,13.75 -120.01,80.01C-120.01,146.27 -66.26,200.01 0,200.01C66.271,200.01 119.99,146.27 119.99,80.01C119.99,13.75 66.271,-39.99 0,-39.99" style="fill:rgb(45,45,45);fill-rule:nonzero;"/>
        </g>
        <g transform="matrix(1,0,0,1,1620,273.795)">
            <path d="M0,160L-40,160L-40,0L0,0C44.18,0 80,35.819 80,80C80,124.189 44.18,160 0,160M0,-40L-80,-40L-80,200L0,200C66.271,200 120,146.27 120,80C120,13.729 66.271,-40 0,-40" style="fill:rgb(45,45,45);fill-rule:nonzero;"/>
        </g>
        <g transform="matrix(1.69259,0,0,1.69259,717.748,557.787)">
            <path d="M0,-27.388C-0.168,-27.976 0.169,-28.396 0.757,-28.396L4.621,-28.396C4.957,-28.396 5.293,-28.103 5.377,-27.808L9.746,-11.046L9.914,-11.046L16.594,-28.355C16.678,-28.607 16.888,-28.816 17.308,-28.816L18.063,-28.816C18.483,-28.816 18.693,-28.607 18.777,-28.355L25.499,-11.046L25.667,-11.046L29.952,-27.808C30.036,-28.103 30.372,-28.396 30.708,-28.396L34.572,-28.396C35.161,-28.396 35.497,-27.976 35.329,-27.388L27.39,0.841C27.306,1.176 26.969,1.428 26.633,1.428L25.961,1.428C25.583,1.428 25.331,1.219 25.247,0.967L17.728,-18.062L17.518,-18.062L10.082,0.967C9.956,1.219 9.788,1.428 9.368,1.428L8.696,1.428C8.36,1.428 8.023,1.176 7.939,0.841L0,-27.388Z" style="fill:rgb(113,95,165);fill-rule:nonzero;"/>
        </g>
        <g transform="matrix(1.69259,0,0,1.69259,817.842,558.145)">
            <path d="M0,-27.81C0,-28.23 0.337,-28.607 0.799,-28.607L17.896,-28.607C18.357,-28.607 18.693,-28.23 18.693,-27.81L18.693,-24.365C18.693,-23.945 18.357,-23.566 17.896,-23.566L5.461,-23.566L5.461,-16.677L15.837,-16.677C16.257,-16.677 16.636,-16.298 16.636,-15.878L16.636,-12.392C16.636,-11.931 16.257,-11.595 15.837,-11.595L5.461,-11.595L5.461,-4.244L17.896,-4.244C18.357,-4.244 18.693,-3.865 18.693,-3.445L18.693,0.001C18.693,0.42 18.357,0.797 17.896,0.797L0.799,0.797C0.337,0.797 0,0.42 0,0.001L0,-27.81Z" style="fill:rgb(113,95,165);fill-rule:nonzero;"/>
        </g>
        <g transform="matrix(1.69259,0,0,1.69259,888.717,516.694)">
            <path d="M0,21.17L1.512,18.566C1.848,17.979 2.563,17.979 2.94,18.272C3.15,18.399 6.553,20.877 9.283,20.877C11.468,20.877 13.106,19.449 13.106,17.643C13.106,15.5 11.3,14.029 7.771,12.602C3.822,11.006 -0.126,8.484 -0.126,3.527C-0.126,-0.211 2.646,-4.537 9.325,-4.537C13.61,-4.537 16.887,-2.353 17.727,-1.723C18.147,-1.471 18.273,-0.758 17.979,-0.338L16.383,2.057C16.047,2.563 15.417,2.899 14.912,2.563C14.576,2.352 11.384,0.252 9.073,0.252C6.679,0.252 5.377,1.848 5.377,3.191C5.377,5.166 6.931,6.51 10.334,7.897C14.408,9.535 19.113,11.971 19.113,17.391C19.113,21.717 15.375,25.707 9.451,25.707C4.158,25.707 1.05,23.229 0.21,22.432C-0.168,22.053 -0.378,21.844 0,21.17" style="fill:rgb(113,95,165);fill-rule:nonzero;"/>
        </g>
        <g transform="matrix(1.69259,0,0,1.69259,968.836,550.962)">
            <path d="M0,-19.322L-6.427,-19.322C-6.89,-19.322 -7.226,-19.701 -7.226,-20.121L-7.226,-23.566C-7.226,-23.986 -6.89,-24.363 -6.427,-24.363L11.93,-24.363C12.392,-24.363 12.729,-23.986 12.729,-23.566L12.729,-20.121C12.729,-19.701 12.392,-19.322 11.93,-19.322L5.503,-19.322L5.503,4.244C5.503,4.664 5.125,5.041 4.705,5.041L0.798,5.041C0.378,5.041 0,4.664 0,4.244L0,-19.322Z" style="fill:rgb(113,95,165);fill-rule:nonzero;"/>
        </g>
        <g transform="matrix(1.69259,0,0,1.69259,1077.46,558.145)">
            <path d="M0,-27.81C0,-28.23 0.337,-28.607 0.799,-28.607L17.896,-28.607C18.357,-28.607 18.693,-28.23 18.693,-27.81L18.693,-24.365C18.693,-23.945 18.357,-23.566 17.896,-23.566L5.461,-23.566L5.461,-16.677L15.837,-16.677C16.257,-16.677 16.636,-16.298 16.636,-15.878L16.636,-12.392C16.636,-11.931 16.257,-11.595 15.837,-11.595L5.461,-11.595L5.461,-4.244L17.896,-4.244C18.357,-4.244 18.693,-3.865 18.693,-3.445L18.693,0.001C18.693,0.42 18.357,0.797 17.896,0.797L0.799,0.797C0.337,0.797 0,0.42 0,0.001L0,-27.81Z" style="fill:rgb(113,95,165);fill-rule:nonzero;"/>
        </g>
        <g transform="matrix(1.69259,0,0,1.69259,1151.25,558.925)">
            <path d="M0,-28.732C0,-29.152 0.379,-29.488 0.799,-29.488L1.849,-29.488L19.324,-10.921L19.366,-10.921L19.366,-28.271C19.366,-28.691 19.702,-29.068 20.164,-29.068L24.028,-29.068C24.449,-29.068 24.827,-28.691 24.827,-28.271L24.827,0C24.827,0.42 24.449,0.756 24.028,0.756L23.021,0.756L5.461,-18.525L5.419,-18.525L5.419,-0.461C5.419,-0.041 5.083,0.336 4.621,0.336L0.799,0.336C0.379,0.336 0,-0.041 0,-0.461L0,-28.732Z" style="fill:rgb(113,95,165);fill-rule:nonzero;"/>
        </g>
        <g transform="matrix(1.69259,0,0,1.69259,1255.46,518.4)">
            <path d="M0,19.154C5.461,19.154 9.452,15.039 9.452,9.535C9.452,4.074 5.461,-0.043 0,-0.043L-4.789,-0.043L-4.789,19.154L0,19.154ZM-10.208,-4.328C-10.208,-4.748 -9.871,-5.125 -9.451,-5.125L0.504,-5.125C8.611,-5.125 15.249,1.47 15.249,9.535C15.249,17.685 8.611,24.279 0.504,24.279L-9.451,24.279C-9.871,24.279 -10.208,23.902 -10.208,23.482L-10.208,-4.328Z" style="fill:rgb(113,95,165);fill-rule:nonzero;"/>
        </g>
        <g transform="matrix(0,1.69259,1.69259,0,1350.44,527.712)">
            <path d="M5.588,-5.418C2.522,-5.418 0,-2.897 0,0.001C0,3.067 2.522,5.588 5.588,5.588C8.527,5.588 11.006,3.067 11.006,0.001C11.006,-2.897 8.527,-5.418 5.588,-5.418" style="fill:rgb(113,95,165);fill-rule:nonzero;"/>
        </g>
        <g transform="matrix(1.69259,0,0,1.69259,1423.51,558.145)">
            <path d="M0,-27.81C0,-28.23 0.337,-28.607 0.799,-28.607L4.663,-28.607C5.083,-28.607 5.461,-28.23 5.461,-27.81L5.461,-4.244L16.173,-4.244C16.636,-4.244 16.972,-3.865 16.972,-3.445L16.972,0.001C16.972,0.42 16.636,0.797 16.173,0.797L0.799,0.797C0.337,0.797 0,0.42 0,0.001L0,-27.81Z" style="fill:rgb(113,95,165);fill-rule:nonzero;"/>
        </g>
        <g transform="matrix(1.69259,0,0,1.69259,1512.88,518.258)">
            <path d="M0,19.322C5.293,19.322 9.662,14.996 9.662,9.703C9.662,4.41 5.293,0 0,0C-5.293,0 -9.619,4.41 -9.619,9.703C-9.619,14.996 -5.293,19.322 0,19.322M0,-5.461C8.401,-5.461 15.123,1.301 15.123,9.703C15.123,18.105 8.401,24.783 0,24.783C-8.401,24.783 -15.08,18.105 -15.08,9.703C-15.08,1.301 -8.401,-5.461 0,-5.461" style="fill:rgb(113,95,165);fill-rule:nonzero;"/>
        </g>
        <g transform="matrix(1.69259,0,0,1.69259,1579.77,558.925)">
            <path d="M0,-28.732C0,-29.152 0.379,-29.488 0.799,-29.488L1.849,-29.488L19.324,-10.921L19.366,-10.921L19.366,-28.271C19.366,-28.691 19.702,-29.068 20.164,-29.068L24.028,-29.068C24.449,-29.068 24.827,-28.691 24.827,-28.271L24.827,0C24.827,0.42 24.449,0.756 24.028,0.756L23.021,0.756L5.461,-18.525L5.419,-18.525L5.419,-0.461C5.419,-0.041 5.083,0.336 4.621,0.336L0.799,0.336C0.379,0.336 0,-0.041 0,-0.461L0,-28.732Z" style="fill:rgb(113,95,165);fill-rule:nonzero;"/>
        </g>
        <g transform="matrix(1.69259,0,0,1.69259,1683.99,518.4)">
            <path d="M0,19.154C5.461,19.154 9.452,15.039 9.452,9.535C9.452,4.074 5.461,-0.043 0,-0.043L-4.789,-0.043L-4.789,19.154L0,19.154ZM-10.208,-4.328C-10.208,-4.748 -9.871,-5.125 -9.451,-5.125L0.504,-5.125C8.611,-5.125 15.249,1.47 15.249,9.535C15.249,17.685 8.611,24.279 0.504,24.279L-9.451,24.279C-9.871,24.279 -10.208,23.902 -10.208,23.482L-10.208,-4.328Z" style="fill:rgb(113,95,165);fill-rule:nonzero;"/>
        </g>
        <g transform="matrix(1.69259,0,0,1.69259,1773.13,518.258)">
            <path d="M0,19.322C5.293,19.322 9.662,14.996 9.662,9.703C9.662,4.41 5.293,0 0,0C-5.293,0 -9.619,4.41 -9.619,9.703C-9.619,14.996 -5.293,19.322 0,19.322M0,-5.461C8.401,-5.461 15.123,1.301 15.123,9.703C15.123,18.105 8.401,24.783 0,24.783C-8.401,24.783 -15.08,18.105 -15.08,9.703C-15.08,1.301 -8.401,-5.461 0,-5.461" style="fill:rgb(113,95,165);fill-rule:nonzero;"/>
        </g>
        <g transform="matrix(1.69259,0,0,1.69259,1840.02,558.925)">
            <path d="M0,-28.732C0,-29.152 0.379,-29.488 0.799,-29.488L1.849,-29.488L19.324,-10.921L19.366,-10.921L19.366,-28.271C19.366,-28.691 19.702,-29.068 20.164,-29.068L24.028,-29.068C24.449,-29.068 24.827,-28.691 24.827,-28.271L24.827,0C24.827,0.42 24.449,0.756 24.028,0.756L23.021,0.756L5.461,-18.525L5.419,-18.525L5.419,-0.461C5.419,-0.041 5.083,0.336 4.621,0.336L0.799,0.336C0.379,0.336 0,-0.041 0,-0.461L0,-28.732Z" style="fill:rgb(113,95,165);fill-rule:nonzero;"/>
        </g>
    </g>
</svg>